<svg version="1.1"
     id="Capa_1"
     xmlns="http://www.w3.org/2000/svg" xmlns:xlink="http://www.w3.org/1999/xlink"
     x="0px" y="0px"
     width="400px" height="400px"
     viewBox="0 0 400 400"
     style="enable-background:new 0 0 400 400;"
     xml:space="preserve"
     >
<g>
    <g>
        <circle cx="200" cy="200" r="150"  fill="#E6196F"/>

        <path style="fill:white;"  d="M199.996,91.382c-35.176,0-63.789,28.616-63.789,63.793c0,7.243,5.871,13.115,13.113,13.115
            c7.246,0,13.117-5.873,13.117-13.115c0-20.71,16.848-37.562,37.559-37.562c20.719,0,37.566,16.852,37.566,37.562
            c0,20.714-16.849,37.566-37.566,37.566c-7.242,0-13.113,5.873-13.113,13.114v45.684c0,7.243,5.871,13.115,13.113,13.115
            s13.117-5.872,13.117-13.115v-33.938c28.905-6.064,50.68-31.746,50.68-62.427C263.793,119.998,235.176,91.382,199.996,91.382z"/>

        <path style="fill:white;"  d="M200.004,273.738c-9.086,0-16.465,7.371-16.465,16.462s7.379,16.465,16.465,16.465c9.094,0,16.457-7.374,16.457-16.465
            S209.098,273.738,200.004,273.738z"/>
    </g>

</g>

</svg>

